<?xml version="1.0" encoding="utf-8"?>
<!-- Generator: Adobe Illustrator 18.1.1, SVG Export Plug-In . SVG Version: 6.00 Build 0)  -->
<svg version="1.1" id="Layer_1" xmlns="http://www.w3.org/2000/svg" xmlns:xlink="http://www.w3.org/1999/xlink" x="0px" y="0px"
	 viewBox="0 0 792 200.5" enable-background="new 0 0 792 200.5" xml:space="preserve">
<rect x="319.1" y="57.1" fill="#FFFFFF" width="1.8" height="75.8"/>
<g>
	<path fill="#FFFFFF" d="M85.5,122c-7.2-7.3-10.9-16.3-10.9-27c0-10.8,3.6-19.8,10.9-27c7.2-7.2,16.2-10.9,27-10.9
		c10.8,0,19.8,3.6,27,10.9c7.2,7.2,10.9,16.3,10.9,27c0,10.8-3.6,19.8-10.9,27c-7.2,7.2-16.3,10.9-27,10.9
		C101.8,132.9,92.8,129.3,85.5,122z M112.6,118.7c6.7,0,12.2-2.3,16.4-6.8c4.2-4.5,6.3-10.2,6.3-16.9c0-6.7-2.1-12.4-6.3-16.9
		c-4.2-4.5-9.7-6.8-16.5-6.8c-6.7,0-12.2,2.3-16.4,6.8c-4.2,4.5-6.3,10.2-6.3,16.9c0,6.7,2.1,12.4,6.3,16.9
		C100.3,116.5,105.8,118.7,112.6,118.7z"/>
	<path fill="#FFFFFF" d="M161.7,132.9V57.1h5.1l47.5,47.5V57.1h15.2v75.8h-5.6l-47-47v47H161.7z"/>
	<path fill="#FFFFFF" d="M244.9,132.9V57.1l55.7-0.1v14.1h-40.5v16.2h30.4v14.1h-30.4v17.2h40.4v14.1H244.9z"/>
</g>
<g>
	<path fill="#FFFFFF" d="M339.7,132.9V57.1h5.1l47.5,47.5V57.1h15.2v75.8h-5.6l-47-47v47H339.7z"/>
	<path fill="#FFFFFF" d="M429.6,122c-7.2-7.3-10.9-16.3-10.9-27c0-10.8,3.6-19.8,10.9-27c7.2-7.2,16.2-10.9,27-10.9
		c10.8,0,19.8,3.6,27,10.9c7.2,7.2,10.9,16.3,10.9,27c0,10.8-3.6,19.8-10.9,27c-7.2,7.2-16.3,10.9-27,10.9
		C445.8,132.9,436.8,129.3,429.6,122z M456.6,118.8c6.7,0,12.2-2.3,16.4-6.8c4.2-4.5,6.3-10.2,6.3-16.9c0-6.7-2.1-12.4-6.3-16.9
		c-4.2-4.5-9.7-6.8-16.5-6.8c-6.7,0-12.2,2.3-16.4,6.8c-4.2,4.5-6.3,10.2-6.3,16.9c0,6.7,2.1,12.4,6.3,16.9
		C444.4,116.5,449.9,118.8,456.6,118.8z"/>
	<path fill="#FFFFFF" d="M551.4,99.9l18.9,33h-17.4l-18.1-31.3h-13.8v31.3h-15.2V57.1h33c17.7,0,26.5,7.3,26.5,21.8
		C565.3,89.9,560.7,96.9,551.4,99.9z M520.9,87.4h21.2c6.1-0.1,9.2-2.9,9.4-8.3c-0.2-5-3.3-7.6-9.2-7.8h-21.4V87.4z"/>
	<path fill="#FFFFFF" d="M640,57.1v14.1h-25.3v61.6h-15.2V71.3h-25.3V57.1H640z"/>
	<path fill="#FFFFFF" d="M651.2,132.9V57.1h15.2v30.3h35.3V57.1h15.2v75.8l-15.2,0.1v-31.3h-35.3v31.3H651.2z"/>
</g>
</svg>
